<svg width="110" height="16" viewBox="0 0 110 16" fill="none" xmlns="http://www.w3.org/2000/svg">
<path d="M7.34 15.3C6.40667 15.3 5.53 15.1367 4.71 14.81C3.89667 14.4767 3.18 13.99 2.56 13.35C1.94667 12.71 1.46667 11.9267 1.12 11C0.773333 10.0667 0.6 9 0.6 7.8C0.6 6.22667 0.893333 4.88333 1.48 3.77C2.06667 2.65 2.87 1.79333 3.89 1.2C4.91 0.599999 6.06 0.3 7.34 0.3C9.11333 0.3 10.5167 0.713333 11.55 1.54C12.59 2.36 13.2933 3.51333 13.66 5L11.2 5.39C10.9267 4.53667 10.48 3.85667 9.86 3.35C9.24 2.83667 8.45 2.58 7.49 2.58C6.52333 2.56667 5.72 2.77667 5.08 3.21C4.44 3.64333 3.95667 4.25333 3.63 5.04C3.31 5.82667 3.15 6.74667 3.15 7.8C3.15 8.85333 3.31 9.77 3.63 10.55C3.95 11.3233 4.43 11.9267 5.07 12.36C5.71667 12.7933 6.52333 13.0167 7.49 13.03C8.21667 13.0367 8.85333 12.9067 9.4 12.64C9.94667 12.3667 10.3933 11.9567 10.74 11.41C11.0867 10.8567 11.32 10.1667 11.44 9.34H8.9V7.45H14C14.0133 7.55667 14.0233 7.71333 14.03 7.92C14.0367 8.12667 14.04 8.25 14.04 8.29C14.04 9.65 13.77 10.86 13.23 11.92C12.6967 12.9733 11.93 13.8 10.93 14.4C9.93 15 8.73333 15.3 7.34 15.3ZM20.9584 15.3C19.8651 15.3 18.9051 15.0633 18.0784 14.59C17.2518 14.1167 16.6051 13.46 16.1384 12.62C15.6784 11.78 15.4484 10.8133 15.4484 9.72C15.4484 8.54 15.6751 7.51667 16.1284 6.65C16.5818 5.77667 17.2118 5.1 18.0184 4.62C18.8251 4.14 19.7584 3.9 20.8184 3.9C21.9384 3.9 22.8884 4.16333 23.6684 4.69C24.4551 5.21 25.0384 5.94667 25.4184 6.9C25.7984 7.85333 25.9418 8.97667 25.8484 10.27H23.4584V9.39C23.4518 8.21667 23.2451 7.36 22.8384 6.82C22.4318 6.28 21.7918 6.01 20.9184 6.01C19.9318 6.01 19.1984 6.31667 18.7184 6.93C18.2384 7.53667 17.9984 8.42667 17.9984 9.6C17.9984 10.6933 18.2384 11.54 18.7184 12.14C19.1984 12.74 19.8984 13.04 20.8184 13.04C21.4118 13.04 21.9218 12.91 22.3484 12.65C22.7818 12.3833 23.1151 12 23.3484 11.5L25.7284 12.22C25.3151 13.1933 24.6751 13.95 23.8084 14.49C22.9484 15.03 21.9984 15.3 20.9584 15.3ZM17.2384 10.27V8.45H24.6684V10.27H17.2384ZM34.4097 15C33.6964 15.1333 32.9964 15.19 32.3097 15.17C31.6297 15.1567 31.0197 15.0333 30.4797 14.8C29.9397 14.56 29.5297 14.1833 29.2497 13.67C29.003 13.2033 28.873 12.7267 28.8597 12.24C28.8464 11.7533 28.8397 11.2033 28.8397 10.59V1.2H31.2397V10.45C31.2397 10.8833 31.243 11.2633 31.2497 11.59C31.263 11.9167 31.333 12.1833 31.4597 12.39C31.6997 12.79 32.083 13.0133 32.6097 13.06C33.1364 13.1067 33.7364 13.08 34.4097 12.98V15ZM26.8797 6.09V4.2H34.4097V6.09H26.8797ZM44.9059 15.3C43.5726 15.3 42.4893 15 41.6559 14.4C40.8226 13.8 40.3159 12.9567 40.1359 11.87L42.5959 11.49C42.7226 12.0233 43.0026 12.4433 43.4359 12.75C43.8693 13.0567 44.4159 13.21 45.0759 13.21C45.6559 13.21 46.1026 13.0967 46.4159 12.87C46.7359 12.6367 46.8959 12.32 46.8959 11.92C46.8959 11.6733 46.8359 11.4767 46.7159 11.33C46.6026 11.1767 46.3493 11.03 45.9559 10.89C45.5626 10.75 44.9593 10.5733 44.1459 10.36C43.2393 10.12 42.5193 9.86333 41.9859 9.59C41.4526 9.31 41.0693 8.98 40.8359 8.6C40.6026 8.22 40.4859 7.76 40.4859 7.22C40.4859 6.54667 40.6626 5.96 41.0159 5.46C41.3693 4.96 41.8626 4.57667 42.4959 4.31C43.1293 4.03667 43.8759 3.9 44.7359 3.9C45.5759 3.9 46.3193 4.03 46.9659 4.29C47.6193 4.55 48.1459 4.92 48.5459 5.4C48.9459 5.88 49.1926 6.44333 49.2859 7.09L46.8259 7.53C46.7659 7.07 46.5559 6.70667 46.1959 6.44C45.8426 6.17333 45.3693 6.02333 44.7759 5.99C44.2093 5.95667 43.7526 6.04333 43.4059 6.25C43.0593 6.45 42.8859 6.73333 42.8859 7.1C42.8859 7.30667 42.9559 7.48333 43.0959 7.63C43.2359 7.77667 43.5159 7.92333 43.9359 8.07C44.3626 8.21667 44.9959 8.39667 45.8359 8.61C46.6959 8.83 47.3826 9.08333 47.8959 9.37C48.4159 9.65 48.7893 9.98667 49.0159 10.38C49.2493 10.7733 49.3659 11.25 49.3659 11.81C49.3659 12.8967 48.9693 13.75 48.1759 14.37C47.3893 14.99 46.2993 15.3 44.9059 15.3ZM57.8863 15C57.1729 15.1333 56.4729 15.19 55.7863 15.17C55.1063 15.1567 54.4963 15.0333 53.9563 14.8C53.4163 14.56 53.0063 14.1833 52.7262 13.67C52.4796 13.2033 52.3496 12.7267 52.3363 12.24C52.3229 11.7533 52.3163 11.2033 52.3163 10.59V1.2H54.7163V10.45C54.7163 10.8833 54.7196 11.2633 54.7263 11.59C54.7396 11.9167 54.8096 12.1833 54.9363 12.39C55.1763 12.79 55.5596 13.0133 56.0863 13.06C56.6129 13.1067 57.2129 13.08 57.8863 12.98V15ZM50.3563 6.09V4.2H57.8863V6.09H50.3563ZM63.2286 15.3C62.4486 15.3 61.7886 15.1533 61.2486 14.86C60.7086 14.56 60.2986 14.1633 60.0186 13.67C59.7453 13.1767 59.6086 12.6333 59.6086 12.04C59.6086 11.52 59.6953 11.0533 59.8686 10.64C60.0419 10.22 60.3086 9.86 60.6686 9.56C61.0286 9.25333 61.4953 9.00333 62.0686 8.81C62.5019 8.67 63.0086 8.54333 63.5886 8.43C64.1753 8.31667 64.8086 8.21333 65.4886 8.12C66.1753 8.02 66.8919 7.91333 67.6386 7.8L66.7786 8.29C66.7853 7.54333 66.6186 6.99333 66.2786 6.64C65.9386 6.28667 65.3653 6.11 64.5586 6.11C64.0719 6.11 63.6019 6.22333 63.1486 6.45C62.6953 6.67667 62.3786 7.06667 62.1986 7.62L59.9986 6.93C60.2653 6.01667 60.7719 5.28333 61.5186 4.73C62.2719 4.17667 63.2853 3.9 64.5586 3.9C65.5186 3.9 66.3619 4.05667 67.0886 4.37C67.8219 4.68333 68.3653 5.19667 68.7186 5.91C68.9119 6.29 69.0286 6.68 69.0686 7.08C69.1086 7.47333 69.1286 7.90333 69.1286 8.37V15H67.0186V12.66L67.3686 13.04C66.8819 13.82 66.3119 14.3933 65.6586 14.76C65.0119 15.12 64.2019 15.3 63.2286 15.3ZM63.7086 13.38C64.2553 13.38 64.7219 13.2833 65.1086 13.09C65.4953 12.8967 65.8019 12.66 66.0286 12.38C66.2619 12.1 66.4186 11.8367 66.4986 11.59C66.6253 11.2833 66.6953 10.9333 66.7086 10.54C66.7286 10.14 66.7386 9.81667 66.7386 9.57L67.4786 9.79C66.7519 9.90333 66.1286 10.0033 65.6086 10.09C65.0886 10.1767 64.6419 10.26 64.2686 10.34C63.8953 10.4133 63.5653 10.4967 63.2786 10.59C62.9986 10.69 62.7619 10.8067 62.5686 10.94C62.3753 11.0733 62.2253 11.2267 62.1186 11.4C62.0186 11.5733 61.9686 11.7767 61.9686 12.01C61.9686 12.2767 62.0353 12.5133 62.1686 12.72C62.3019 12.92 62.4953 13.08 62.7486 13.2C63.0086 13.32 63.3286 13.38 63.7086 13.38ZM71.732 15V4.2H73.862V6.83L73.602 6.49C73.7354 6.13 73.912 5.80333 74.132 5.51C74.3587 5.21 74.6287 4.96333 74.942 4.77C75.2087 4.59 75.502 4.45 75.822 4.35C76.1487 4.24333 76.482 4.18 76.822 4.16C77.162 4.13333 77.492 4.14667 77.812 4.2V6.45C77.492 6.35667 77.122 6.32667 76.702 6.36C76.2887 6.39333 75.9154 6.51 75.582 6.71C75.2487 6.89 74.9754 7.12 74.762 7.4C74.5554 7.68 74.402 8 74.302 8.36C74.202 8.71333 74.152 9.09667 74.152 9.51V15H71.732ZM86.0503 15C85.337 15.1333 84.637 15.19 83.9503 15.17C83.2703 15.1567 82.6603 15.0333 82.1203 14.8C81.5803 14.56 81.1703 14.1833 80.8903 13.67C80.6436 13.2033 80.5136 12.7267 80.5003 12.24C80.487 11.7533 80.4803 11.2033 80.4803 10.59V1.2H82.8803V10.45C82.8803 10.8833 82.8836 11.2633 82.8903 11.59C82.9036 11.9167 82.9736 12.1833 83.1003 12.39C83.3403 12.79 83.7236 13.0133 84.2503 13.06C84.777 13.1067 85.377 13.08 86.0503 12.98V15ZM78.5203 6.09V4.2H86.0503V6.09H78.5203ZM92.7358 15.3C91.6424 15.3 90.6824 15.0633 89.8558 14.59C89.0291 14.1167 88.3824 13.46 87.9158 12.62C87.4558 11.78 87.2258 10.8133 87.2258 9.72C87.2258 8.54 87.4524 7.51667 87.9058 6.65C88.3591 5.77667 88.9891 5.1 89.7958 4.62C90.6024 4.14 91.5358 3.9 92.5958 3.9C93.7158 3.9 94.6658 4.16333 95.4458 4.69C96.2324 5.21 96.8158 5.94667 97.1958 6.9C97.5758 7.85333 97.7191 8.97667 97.6258 10.27H95.2358V9.39C95.2291 8.21667 95.0224 7.36 94.6158 6.82C94.2091 6.28 93.5691 6.01 92.6958 6.01C91.7091 6.01 90.9758 6.31667 90.4958 6.93C90.0158 7.53667 89.7758 8.42667 89.7758 9.6C89.7758 10.6933 90.0158 11.54 90.4958 12.14C90.9758 12.74 91.6758 13.04 92.5958 13.04C93.1891 13.04 93.6991 12.91 94.1258 12.65C94.5591 12.3833 94.8924 12 95.1258 11.5L97.5058 12.22C97.0924 13.1933 96.4524 13.95 95.5858 14.49C94.7258 15.03 93.7758 15.3 92.7358 15.3ZM89.0158 10.27V8.45H96.4458V10.27H89.0158ZM104.187 15.3C103.194 15.3 102.327 15.05 101.587 14.55C100.847 14.05 100.274 13.37 99.867 12.51C99.4604 11.65 99.257 10.68 99.257 9.6C99.257 8.50667 99.4604 7.53333 99.867 6.68C100.28 5.82 100.864 5.14333 101.617 4.65C102.37 4.15 103.257 3.9 104.277 3.9C105.304 3.9 106.164 4.15 106.857 4.65C107.557 5.14333 108.087 5.82 108.447 6.68C108.807 7.54 108.987 8.51333 108.987 9.6C108.987 10.6733 108.807 11.6433 108.447 12.51C108.087 13.37 107.55 14.05 106.837 14.55C106.124 15.05 105.24 15.3 104.187 15.3ZM104.557 13.14C105.204 13.14 105.724 12.9933 106.117 12.7C106.517 12.4 106.807 11.9833 106.987 11.45C107.174 10.9167 107.267 10.3 107.267 9.6C107.267 8.89333 107.174 8.27667 106.987 7.75C106.807 7.21667 106.524 6.80333 106.137 6.51C105.75 6.21 105.25 6.06 104.637 6.06C103.99 6.06 103.457 6.22 103.037 6.54C102.617 6.85333 102.307 7.28 102.107 7.82C101.907 8.35333 101.807 8.94667 101.807 9.6C101.807 10.26 101.904 10.86 102.097 11.4C102.297 11.9333 102.6 12.3567 103.007 12.67C103.414 12.9833 103.93 13.14 104.557 13.14ZM107.267 15V7.42H106.967V0.599999H109.397V15H107.267Z" fill="#8C30F5"/>
</svg>
